<?xml version="1.0" encoding="UTF-8"?>
<svg width="658px" height="179px" viewBox="0 0 658 179" xmlns="http://www.w3.org/2000/svg" xmlns:xlink="http://www.w3.org/1999/xlink" version="1.1">
 <!-- Generated by Pixelmator Pro 1.2 -->
 <path id="path" d="M114.354 67.548 C109.293 62.484 103.2 59.95 95.981 59.948 88.761 59.945 82.666 62.475 77.602 67.536 72.537 72.597 70.004 78.784 70.001 85.909 L69.986 129.037 C69.985 130.35 70.36 131.381 71.297 132.226 72.141 133.163 73.172 133.539 74.485 133.539 75.703 133.54 76.735 133.165 77.579 132.228 78.517 131.384 78.986 130.353 78.987 129.041 L78.995 105.601 C83.775 109.822 89.493 111.981 95.963 111.983 103.182 111.985 109.277 109.456 114.341 104.395 119.406 99.24 122.033 93.147 122.036 85.928 122.038 78.802 119.416 72.613 114.354 67.548 Z M95.966 102.982 C91.278 102.981 87.247 101.291 83.967 98.009 80.593 94.632 79 90.6 79.002 85.913 79.003 82.912 79.754 80.006 81.255 77.381 82.756 74.757 84.819 72.695 87.445 71.196 90.071 69.696 92.884 68.947 95.978 68.948 100.665 68.95 104.696 70.639 107.977 73.922 111.351 77.298 113.037 81.236 113.035 85.924 113.034 90.612 111.345 94.643 107.968 98.017 104.686 101.297 100.654 102.984 95.966 102.982 Z" fill="#b3490f" fill-opacity="1" stroke="none"/>
 <path id="path-1" d="M184.728 60.073 C183.415 60.072 182.29 60.541 181.352 61.478 180.414 62.415 180.039 63.446 180.038 64.759 L180.03 88.104 C180.029 92.136 178.528 95.604 175.714 98.416 172.807 101.321 169.431 102.727 165.399 102.725 161.368 102.724 157.993 101.316 155.087 98.409 152.276 95.595 150.871 92.126 150.872 88.094 L150.88 64.749 C150.881 63.436 150.412 62.405 149.475 61.467 148.538 60.529 147.507 60.059 146.194 60.059 144.881 60.059 143.756 60.527 142.818 61.464 141.88 62.401 141.505 63.433 141.504 64.745 L141.496 88.091 C141.494 94.747 143.742 100.374 148.428 105.063 153.115 109.753 158.739 112.098 165.396 112.101 171.959 112.103 177.679 109.761 182.368 105.075 187.058 100.389 189.404 94.764 189.406 88.108 L189.414 64.762 C189.415 63.449 188.946 62.418 188.009 61.48 187.072 60.542 186.041 60.073 184.728 60.073 Z" fill="#b3490f" fill-opacity="1" stroke="none"/>
 <path id="path-2" d="M262.076 85.883 C262.079 78.663 259.456 72.568 254.395 67.41 249.24 62.345 243.147 59.718 235.927 59.716 228.708 59.713 222.613 62.336 217.454 67.397 212.39 72.552 209.856 78.645 209.854 85.865 209.851 93.084 212.381 99.179 217.442 104.337 222.596 109.402 228.69 111.936 235.909 111.938 242.378 111.94 248.004 109.88 252.975 105.662 L252.974 107.444 C252.973 112.131 251.284 116.162 248.001 119.443 244.625 122.817 240.593 124.409 235.905 124.408 232.998 124.406 230.279 123.75 227.749 122.342 225.217 121.029 223.156 119.059 221.656 116.621 220.907 115.589 219.969 114.933 218.751 114.745 217.532 114.463 216.407 114.65 215.375 115.306 214.344 115.962 213.687 116.899 213.405 118.118 213.124 119.337 213.405 120.462 214.06 121.494 215.653 124.026 217.621 126.183 219.871 127.965 222.12 129.747 224.651 131.06 227.37 131.999 230.089 132.937 232.995 133.407 235.901 133.408 243.121 133.411 249.216 130.881 254.28 125.82 259.345 120.759 261.972 114.666 261.975 107.447 L261.982 88.133 C261.982 87.383 262.076 86.633 262.076 85.883 Z M235.912 102.75 C231.224 102.748 227.287 101.153 224.007 97.776 220.633 94.494 219.04 90.556 219.042 85.868 219.043 81.18 220.639 77.243 224.015 73.869 227.298 70.588 231.236 68.902 235.924 68.904 240.612 68.905 244.549 70.594 247.923 73.877 251.204 77.253 252.89 81.192 252.888 85.88 252.886 90.567 251.198 94.505 247.915 97.785 244.538 101.159 240.6 102.751 235.912 102.75 Z" fill="#cc8039" fill-opacity="1" stroke="none"/>
 <path id="path-3" d="M287.312 104.362 C292.373 109.52 298.466 112.054 305.685 112.056 312.904 112.059 319 109.529 324.064 104.375 329.129 99.313 331.756 93.22 331.759 86.001 L331.774 42.873 C331.774 41.654 331.306 40.623 330.368 39.685 329.525 38.84 328.494 38.371 327.275 38.371 325.963 38.37 324.931 38.839 324.087 39.682 323.149 40.62 322.773 41.651 322.773 42.87 L322.765 66.309 C317.891 62.088 312.172 60.023 305.703 60.021 298.484 60.019 292.389 62.548 287.324 67.609 282.26 72.67 279.726 78.857 279.724 85.983 279.721 93.202 282.25 99.297 287.312 104.362 Z M305.7 69.022 C310.388 69.023 314.419 70.713 317.699 73.995 321.073 77.278 322.76 81.31 322.758 85.998 322.756 90.686 321.067 94.717 317.691 98.091 314.408 101.371 310.376 103.057 305.688 103.056 301 103.054 296.969 101.365 293.689 98.082 290.315 94.706 288.723 90.674 288.724 85.986 288.726 81.298 290.321 77.267 293.698 73.987 296.98 70.706 301.012 69.02 305.7 69.022 Z" fill="#cc8039" fill-opacity="1" stroke="none"/>
 <path id="path-4" d="M377.181 111.988 C383.369 111.99 388.808 110.116 393.591 106.18 394.622 105.431 395.091 104.399 395.279 103.181 395.374 101.868 395.093 100.837 394.249 99.805 393.5 98.867 392.468 98.304 391.25 98.21 390.031 98.116 388.906 98.397 387.968 99.24 384.779 101.771 381.216 102.988 377.184 102.987 372.496 102.985 368.466 101.39 365.185 98.013 361.811 94.731 360.219 90.699 360.22 86.011 360.222 81.323 361.817 77.292 365.194 73.918 368.476 70.638 372.508 68.951 377.196 68.953 381.04 68.954 384.509 70.174 387.602 72.519 390.601 74.865 392.569 77.865 393.599 81.522 L377.192 81.516 C375.973 81.516 374.848 81.984 374.004 82.828 373.16 83.672 372.69 84.796 372.69 86.015 372.69 87.234 373.158 88.359 374.001 89.203 374.845 90.047 375.97 90.517 377.189 90.517 L398.753 90.525 C399.972 90.525 401.003 90.057 401.847 89.213 402.785 88.37 403.254 87.245 403.255 86.026 403.257 78.807 400.634 72.712 395.573 67.647 390.512 62.582 384.419 59.955 377.199 59.952 369.98 59.95 363.885 62.573 358.82 67.634 353.756 72.695 351.222 78.788 351.22 86.008 351.217 93.227 353.746 99.322 358.808 104.387 363.869 109.451 369.962 111.985 377.181 111.988 Z" fill="#e2af5e" fill-opacity="1" stroke="none"/>
 <path id="path-5" d="M464.254 67.671 C459.192 62.606 453.099 60.073 445.88 60.07 438.661 60.068 432.566 62.597 427.501 67.658 422.436 72.719 419.903 78.906 419.9 86.032 L419.885 129.16 C419.885 130.472 420.259 131.504 421.197 132.348 422.04 133.286 423.071 133.661 424.384 133.662 425.603 133.662 426.634 133.287 427.478 132.35 428.416 131.507 428.885 130.476 428.886 129.163 L428.894 105.724 C433.674 109.945 439.392 112.103 445.862 112.105 453.081 112.108 459.176 109.578 464.241 104.517 469.305 99.363 471.933 93.269 471.935 86.05 471.938 78.924 469.315 72.736 464.253 67.671 Z M445.865 103.105 C441.177 103.103 437.146 101.414 433.866 98.131 430.492 94.755 428.899 90.723 428.901 86.035 428.902 83.035 429.653 80.129 431.154 77.504 432.655 74.879 434.718 72.817 437.344 71.318 439.97 69.819 442.783 69.07 445.877 69.071 450.564 69.072 454.595 70.762 457.876 74.044 461.25 77.421 462.936 81.359 462.934 86.047 462.933 90.735 461.244 94.766 457.867 98.14 454.585 101.42 450.553 103.106 445.865 103.105 Z" fill="#e2af5e" fill-opacity="1" stroke="none"/>
 <path id="path-6" d="M520.939 58.971 C513.063 58.969 506.406 61.779 500.778 67.309 495.245 72.838 492.523 79.494 492.521 87.37 L492.514 107.152 C492.513 108.465 492.888 109.496 493.825 110.341 494.669 111.278 495.7 111.654 497.012 111.654 498.231 111.655 499.263 111.28 500.107 110.343 501.045 109.499 501.514 108.468 501.514 107.156 L501.521 87.373 C501.523 82.029 503.4 77.435 507.151 73.686 510.997 69.844 515.592 67.97 520.936 67.972 522.155 67.973 523.186 67.504 524.124 66.661 524.968 65.723 525.437 64.692 525.438 63.473 525.438 62.255 524.97 61.129 524.126 60.285 523.189 59.441 522.158 58.972 520.939 58.971 Z" fill="#fbe688" fill-opacity="1" stroke="none"/>
 <path id="path-7" d="M563.927 112.053 C571.147 112.055 577.242 109.526 582.307 104.465 587.371 99.404 589.999 93.311 590.001 86.091 590.004 78.872 587.38 72.777 582.319 67.712 577.258 62.648 571.165 60.02 563.946 60.018 556.727 60.015 550.631 62.638 545.567 67.699 540.502 72.761 537.969 78.854 537.966 86.073 537.964 93.292 540.493 99.387 545.554 104.452 550.615 109.517 556.708 112.05 563.927 112.053 Z M563.943 69.018 C568.63 69.02 572.661 70.709 576.035 73.992 579.316 77.368 581.002 81.4 581 86.088 580.999 90.776 579.31 94.807 576.027 98.087 572.651 101.461 568.619 103.054 563.931 103.052 559.243 103.051 555.212 101.455 551.932 98.079 548.557 94.796 546.965 90.764 546.967 86.076 546.968 81.388 548.563 77.357 551.94 73.983 555.223 70.703 559.255 69.017 563.943 69.018 Z" fill="#fbe688" fill-opacity="1" stroke="none"/>
</svg>
